<?xml version="1.0" encoding="iso-8859-1"?>
<!-- Generator: Adobe Illustrator 19.0.0, SVG Export Plug-In . SVG Version: 6.00 Build 0)  -->
<svg version="1.1" id="Capa_1" xmlns="http://www.w3.org/2000/svg" xmlns:xlink="http://www.w3.org/1999/xlink" x="0px" y="0px"
	 viewBox="0 0 512 512" style="enable-background:new 0 0 512 512;" xml:space="preserve">
<g>
	<g>
		<path d="M256,123c-73.336,0-133,59.664-133,133s59.664,133,133,133s133-59.664,133-133S329.336,123,256,123z M326,344.644
			C306.738,359.887,282.414,369,256,369s-50.738-9.113-70-24.356v-16.538c0-12.002,8.563-22.31,20.362-24.511l14.968-2.792
			c8.996,8.673,21.217,14.024,34.67,14.024s25.674-5.351,34.67-14.023l14.968,2.792c11.799,2.2,20.362,12.508,20.362,24.51V344.644z
			 M226,264.828v-16c0-16.542,13.458-30,30-30s30,13.458,30,30v16c0,16.542-13.458,30-30,30S226,281.37,226,264.828z
			 M345.845,324.448c-1.627-20.036-16.488-36.773-36.541-40.514l-6.619-1.235c2.134-5.554,3.315-11.576,3.315-17.872v-16
			c0-27.57-22.43-50-50-50s-50,22.43-50,50v16c0,6.296,1.181,12.318,3.315,17.872l-6.619,1.235
			c-20.053,3.74-34.914,20.478-36.541,40.514C151.637,305.439,143,281.711,143,256c0-62.309,50.691-113,113-113s113,50.691,113,113
			C369,281.711,360.363,305.439,345.845,324.448z"/>
	</g>
</g>
<g>
	<g>
		<path d="M405.999,451.232c-3.189-4.509-9.429-5.583-13.939-2.393C352.121,477.075,305.072,492,256,492
			c-27.156,0-53.776-4.573-79.118-13.593c-5.204-1.853-10.922,0.864-12.774,6.068c-1.852,5.203,0.865,10.922,6.068,12.774
			C197.677,507.037,226.552,512,256,512c53.23,0,104.271-16.193,147.606-46.83C408.115,461.982,409.187,455.741,405.999,451.232z"/>
	</g>
</g>
<g>
	<g>
		<path d="M351.799,18.539C321.346,6.237,289.114,0,256,0c-54.599,0-106.711,16.963-150.705,49.056
			c-4.461,3.254-5.44,9.51-2.186,13.972c1.959,2.683,5.002,4.107,8.088,4.107c2.044,0,4.107-0.625,5.885-1.922
			C157.63,35.634,205.667,20,256,20c30.535,0,60.247,5.748,88.309,17.083c5.121,2.071,10.949-0.405,13.017-5.527
			C359.395,26.435,356.92,20.607,351.799,18.539z"/>
	</g>
</g>
<g>
	<g>
		<path d="M461.461,103.299c4.217-6.226,6.487-13.561,6.487-21.247c0-10.15-3.953-19.693-11.13-26.87
			c-7.177-7.178-16.72-11.13-26.87-11.13c-10.15,0-19.693,3.953-26.87,11.13c-7.178,7.177-11.13,16.72-11.13,26.87
			s3.953,19.693,11.13,26.87c7.177,7.178,16.72,11.13,26.87,11.13c5.743,0,11.29-1.267,16.325-3.666
			C476.216,157.038,492,205.111,492,256c0,30.72-5.815,60.599-17.284,88.806c-2.08,5.116,0.381,10.95,5.497,13.03
			c1.234,0.501,2.509,0.739,3.763,0.739c3.948,0,7.688-2.354,9.267-6.236C505.689,321.728,512,289.315,512,256
			C512,200.276,494.547,147.665,461.461,103.299z M442.676,94.779c-3.399,3.4-7.92,5.272-12.728,5.272s-9.328-1.871-12.728-5.272
			c-3.4-3.399-5.272-7.92-5.272-12.728c0-4.808,1.872-9.328,5.272-12.728c3.399-3.4,7.92-5.272,12.728-5.272
			s9.328,1.872,12.728,5.272c3.4,3.399,5.272,7.92,5.272,12.728C447.948,86.859,446.076,91.379,442.676,94.779z"/>
	</g>
</g>
<g>
	<g>
		<path d="M256,399.086c-16.096,0-29.877,10.065-35.406,24.227c-49.915-10.539-93.087-43.307-116.681-89.067
			c-2.531-4.909-8.56-6.837-13.471-4.306c-4.909,2.531-6.836,8.562-4.306,13.471c26.668,51.725,75.751,88.579,132.378,99.882
			c2.974,18.01,18.647,31.793,37.486,31.793c20.953,0,38-17.047,38-38S276.953,399.086,256,399.086z M256,455.086
			c-9.925,0-18-8.075-18-18s8.075-18,18-18s18,8.075,18,18S265.925,455.086,256,455.086z"/>
	</g>
</g>
<g>
	<g>
		<path d="M103.265,408.734c-8.781-8.779-21.695-10.968-32.537-6.566C37.542,360.174,20,309.652,20,256
			c0-25.049,3.904-49.707,11.604-73.287c1.714-5.25-1.152-10.896-6.402-12.61c-5.25-1.716-10.896,1.152-12.61,6.402
			C4.236,202.093,0,228.839,0,256c0,58.502,19.223,113.581,55.592,159.281c0.058,0.072,0.124,0.134,0.183,0.204
			c-6.265,11.396-4.583,26.029,5.064,35.676c5.849,5.848,13.531,8.772,21.213,8.772s15.365-2.924,21.213-8.772
			C114.962,439.464,114.962,420.432,103.265,408.734z M89.123,437.019c-1.889,1.889-4.4,2.929-7.071,2.929s-5.182-1.04-7.071-2.929
			c-1.889-1.889-2.929-4.4-2.929-7.071s1.04-5.182,2.929-7.071c1.889-1.889,4.4-2.929,7.071-2.929s5.182,1.04,7.071,2.929
			c1.889,1.889,2.929,4.4,2.929,7.071S91.012,435.13,89.123,437.019z"/>
	</g>
</g>
<g>
	<g>
		<path d="M436.388,274.015c-5.457-0.845-10.567,2.896-11.411,8.354c-8.085,52.262-40.771,98.606-87.435,123.972
			c-4.852,2.638-6.647,8.709-4.01,13.562c1.813,3.335,5.248,5.226,8.794,5.226c1.613,0,3.25-0.392,4.767-1.216
			c25.426-13.821,47.755-33.608,64.575-57.223c17.133-24.054,28.569-52.154,33.072-81.263
			C445.586,279.968,441.846,274.859,436.388,274.015z"/>
	</g>
</g>
<g>
	<g>
		<path d="M177.794,92.418c-2.658-4.842-8.738-6.611-13.578-3.954c-25.248,13.859-47.415,33.624-64.106,57.157
			c-17.004,23.975-28.363,51.96-32.849,80.933c-0.844,5.457,2.895,10.567,8.353,11.412c0.519,0.08,1.033,0.119,1.542,0.119
			c4.847,0,9.105-3.532,9.87-8.472c8.048-51.982,40.502-98.194,86.814-123.617C178.681,103.338,180.452,97.259,177.794,92.418z"/>
	</g>
</g>
<g>
	<g>
		<path d="M420.82,159.436c-29.224-49.781-78.563-83.376-135.367-92.173c-0.179-0.028-0.356-0.037-0.533-0.055
			c-3.497-12.689-15.134-22.04-28.92-22.04c-16.542,0-30,13.458-30,30c0,16.542,13.458,30,30,30c12.26,0,22.821-7.396,27.469-17.959
			c50.387,8.129,94.12,38.089,120.104,82.351c1.863,3.173,5.202,4.94,8.633,4.94c1.72,0,3.463-0.444,5.053-1.377
			C422.022,170.327,423.616,164.199,420.82,159.436z M256,85.168c-5.514,0-10-4.486-10-10c0-5.514,4.486-10,10-10
			c5.514,0,10,4.486,10,10C266,80.682,261.514,85.168,256,85.168z"/>
	</g>
</g>
<g>
	<g>
		<path d="M89.12,74.98c-1.86-1.86-4.44-2.93-7.07-2.93s-5.21,1.07-7.07,2.93c-1.86,1.86-2.93,4.44-2.93,7.07s1.07,5.21,2.93,7.07
			c1.86,1.86,4.44,2.93,7.07,2.93c2.64,0,5.21-1.07,7.07-2.93s2.93-4.44,2.93-7.07S90.98,76.84,89.12,74.98z"/>
	</g>
</g>
<g>
	<g>
		<path d="M437.02,422.88c-1.86-1.86-4.44-2.93-7.07-2.93s-5.21,1.07-7.07,2.93c-1.86,1.86-2.93,4.44-2.93,7.07s1.07,5.21,2.93,7.07
			c1.86,1.86,4.44,2.93,7.07,2.93s5.21-1.07,7.07-2.93s2.93-4.44,2.93-7.07S438.88,424.74,437.02,422.88z"/>
	</g>
</g>
<g>
</g>
<g>
</g>
<g>
</g>
<g>
</g>
<g>
</g>
<g>
</g>
<g>
</g>
<g>
</g>
<g>
</g>
<g>
</g>
<g>
</g>
<g>
</g>
<g>
</g>
<g>
</g>
<g>
</g>
</svg>
