<svg height="512pt" viewBox="0 0 512 512" width="512pt" xmlns="http://www.w3.org/2000/svg">
    <g fill="#2c3e50">
        <path d="m324 512h-136c-5.523438 0-10-4.476562-10-10v-168h-168c-5.523438 0-10-4.476562-10-10v-136c0-5.523438 4.476562-10 10-10h168v-168c0-5.523438 4.476562-10 10-10h136c5.523438 0 10 4.476562 10 10v168h168c5.523438 0 10 4.476562 10 10v136c0 5.523438-4.476562 10-10 10h-46.332031c-5.523438 0-10-4.476562-10-10s4.476562-10 10-10h36.332031v-116h-168c-5.523438 0-10-4.476562-10-10v-168h-116v168c0 5.523438-4.476562 10-10 10h-168v116h168c5.523438 0 10 4.476562 10 10v168h116v-168c0-5.523438 4.476562-10 10-10h51.667969c5.519531 0 10 4.476562 10 10s-4.480469 10-10 10h-41.667969v168c0 5.523438-4.476562 10-10 10zm0 0" />
        <path d="m415.671875 334c-2.632813 0-5.210937-1.070312-7.082031-2.929688-1.859375-1.859374-2.917969-4.441406-2.917969-7.070312s1.058594-5.210938 2.917969-7.070312c1.871094-1.859376 4.449218-2.929688 7.082031-2.929688 2.628906 0 5.199219 1.070312 7.066406 2.929688 1.859375 1.859374 2.933594 4.441406 2.933594 7.070312s-1.070313 5.210938-2.933594 7.070312c-1.867187 1.859376-4.4375 2.929688-7.066406 2.929688zm0 0" />
    </g>
</svg>