<svg height="511pt" viewBox="-33 0 511 511.9985" width="511pt" xmlns="http://www.w3.org/2000/svg"><path d="m437.972656 79.160156-66.152344-24.507812c-5.179687-1.917969-10.929687.726562-12.851562 5.902344-1.917969 5.179687.726562 10.933593 5.90625 12.851562l59.625 22.089844v119.875c0 127.164062-81.046875 237.753906-202 276.152344-120.953125-38.398438-202-148.988282-202-276.152344v-119.875l202-74.832032 57.960938 21.472657c5.179687 1.921875 10.933593-.722657 12.851562-5.902344s-.722656-10.933594-5.902344-12.851563l-61.4375-22.761718c-2.238281-.828125-4.707031-.828125-6.945312 0l-212 78.539062c-3.925782 1.453125-6.527344 5.195313-6.527344 9.378906v126.832032c0 66.796875 20.996094 130.496094 60.71875 184.199218 39.722656 53.707032 94.480469 92.433594 158.351562 111.988282.957032.292968 1.941407.441406 2.929688.441406s1.972656-.148438 2.929688-.441406c63.871093-19.554688 118.628906-58.28125 158.351562-111.988282 39.722656-53.703124 60.71875-117.402343 60.71875-184.199218v-126.832032c0-4.183593-2.605469-7.925781-6.527344-9.378906zm0 0"/><path d="m218.875 50.894531-164 63.785157c-3.84375 1.492187-6.375 5.195312-6.375 9.320312v91.371094c0 54.152344 16.179688 105.992187 46.789062 149.910156 30.503907 43.769531 73.292969 76.777344 123.738282 95.453125 1.121094.414063 2.296875.621094 3.472656.621094s2.351562-.207031 3.472656-.621094c50.445313-18.675781 93.234375-51.683594 123.738282-95.453125 30.609374-43.917969 46.789062-95.757812 46.789062-149.910156v-91.371094c0-4.125-2.53125-7.824219-6.375-9.320312l-164-63.78125c-2.332031-.910157-4.917969-.910157-7.25-.003907zm157.625 164.476563c0 101.003906-60.320312 189.03125-154 225.292968-93.683594-36.261718-154-124.289062-154-225.292968v-84.53125l154-59.894532 154 59.894532zm0 0"/><path d="m164.5 169.863281v20.414063h-1.125c-17.023438 0-30.875 13.851562-30.875 30.875v97.761718c0 17.027344 13.851562 30.875 30.875 30.875h118.25c17.023438 0 30.875-13.847656 30.875-30.875v-97.761718c0-17.023438-13.851562-30.875-30.875-30.875h-1.125v-20.414063c0-31.980469-26.019531-58-58-58s-58 26.015625-58 58zm128 51.289063v97.761718c0 5.996094-4.878906 10.875-10.875 10.875h-118.25c-5.996094 0-10.875-4.878906-10.875-10.875v-97.761718c0-5.996094 4.878906-10.875 10.875-10.875h118.25c5.996094 0 10.875 4.878906 10.875 10.875zm-32-51.289063v20.414063h-76v-20.414063c0-20.953125 17.046875-38 38-38s38 17.046875 38 38zm0 0"/><path d="m222.5 229.976562c-16.542969 0-30 13.460938-30 30 0 13.039063 8.359375 24.152344 20 28.28125v7.832032c0 5.523437 4.476562 10 10 10 5.519531 0 10-4.476563 10-10v-7.832032c11.636719-4.128906 20-15.242187 20-28.28125 0-16.539062-13.457031-30-30-30zm0 40c-5.515625 0-10-4.484374-10-10 0-5.511718 4.484375-10 10-10 5.511719 0 10 4.488282 10 10 0 5.515626-4.488281 10-10 10zm0 0"/><path d="m326.136719 58.398438c2.632812 0 5.210937-1.070313 7.070312-2.929688 1.859375-1.871094 2.929688-4.4375 2.929688-7.070312 0-2.628907-1.070313-5.210938-2.929688-7.078126-1.859375-1.859374-4.4375-2.921874-7.070312-2.921874-2.628907 0-5.207031 1.0625-7.070313 2.921874-1.855468 1.867188-2.929687 4.4375-2.929687 7.078126 0 2.632812 1.070312 5.210937 2.929687 7.070312 1.863282 1.859375 4.441406 2.929688 7.070313 2.929688zm0 0"/></svg>