<?xml version="1.0" encoding="iso-8859-1"?>
<!-- Generator: Adobe Illustrator 19.0.0, SVG Export Plug-In . SVG Version: 6.00 Build 0)  -->
<svg version="1.1" id="Layer_1" xmlns="http://www.w3.org/2000/svg" xmlns:xlink="http://www.w3.org/1999/xlink" x="0px" y="0px"
	 viewBox="0 0 512 512" style="enable-background:new 0 0 512 512;" xml:space="preserve">
<g>
	<g>
		<path d="M316.248,388.629c-1.943-1.944-4.639-3.062-7.387-3.062c-2.748,0-5.444,1.118-7.387,3.062
			c-1.943,1.943-3.062,4.639-3.062,7.387c0,2.748,1.118,5.444,3.062,7.387c1.944,1.943,4.639,3.062,7.387,3.062
			c2.748,0,5.444-1.118,7.387-3.062c1.944-1.944,3.062-4.639,3.062-7.387C319.31,393.268,318.192,390.572,316.248,388.629z"/>
	</g>
</g>
<g>
	<g>
		<path d="M365.919,314.425l-59.508-24.794c-1.088-0.453-1.914-1.329-2.344-2.459v-16.157l17.481-10.024
			c0.19-0.11,0.377-0.225,0.56-0.346c11.717-7.737,19.393-21.263,20.533-36.179c0.02-0.265,0.03-0.531,0.03-0.796v-6.848
			c9.84-4.106,16.774-13.828,16.774-25.138v-26.811c0-11.311-6.934-21.032-16.774-25.138v-21.647
			c0-34.569-28.242-62.694-62.955-62.694H232.55c-34.826,0-63.161,28.124-63.161,62.694v21.643
			c-9.873,4.109-16.833,13.859-16.833,25.202v26.692c0,11.343,6.96,21.093,16.833,25.202v6.843c0,0.265,0.009,0.531,0.03,0.796
			c1.137,14.886,8.84,28.41,20.603,36.179c0.187,0.123,0.378,0.241,0.573,0.352l17.339,9.912v16.187
			c-0.43,1.139-1.307,2.059-2.445,2.534l-59.508,24.794c-16.009,6.671-27.19,24.247-27.19,42.742v38.851
			c0,5.771,4.678,10.449,10.449,10.449H271.59c5.771,0,10.449-4.678,10.449-10.449c0-5.771-4.678-10.449-10.449-10.449H139.688
			v-28.402c0-9.965,6.161-20.046,14.331-23.451l59.509-24.795c7.798-3.251,13.444-10.142,15.102-18.435
			c0.135-0.674,0.203-1.36,0.203-2.048v-23.59c0-3.749-2.008-7.211-5.263-9.072l-22.28-12.737
			c-6.092-4.15-10.276-11.681-11.002-19.799v-14.781c0-5.771-4.678-10.449-10.449-10.449c-3.461,0-6.384-2.924-6.384-6.384v-26.692
			c0-3.461,2.924-6.384,6.384-6.384c5.771,0,10.449-4.678,10.449-10.449v-30.012c0-23.046,18.959-41.796,42.263-41.796h47.167
			c23.19,0,42.057,18.75,42.057,41.796v30.012c0,5.771,4.678,10.449,10.449,10.449c3.428,0,6.325,2.896,6.325,6.325v26.811
			c0,3.428-2.896,6.325-6.325,6.325c-5.771,0-10.449,4.678-10.449,10.449v14.783c-0.727,8.149-4.887,15.681-10.937,19.802
			l-22.417,12.853c-3.249,1.862-5.252,5.321-5.252,9.065v23.584c0,0.714,0.073,1.426,0.218,2.124
			c1.709,8.231,7.312,15.054,14.986,18.251l59.508,24.794c8.169,3.403,14.33,13.485,14.33,23.451v28.402h-27.393
			c-5.771,0-10.449,4.678-10.449,10.449c0,5.771,4.678,10.449,10.449,10.449h37.842c5.771,0,10.449-4.678,10.45-10.449v-38.849
			C393.109,338.672,381.928,321.096,365.919,314.425z"/>
	</g>
</g>
<g>
	<g>
		<path d="M437.019,74.981C388.667,26.628,324.379,0,256,0S123.333,26.628,74.98,74.981C31.207,118.755,4.788,176.837,0.593,238.529
			c-4.154,61.093,13.634,121.619,50.088,170.429c3.454,4.624,10.001,5.573,14.624,2.119c4.623-3.453,5.572-10.001,2.119-14.624
			C-1.885,303.65,7.716,171.8,89.758,89.758C134.162,45.353,193.201,20.898,256,20.898c62.798,0,121.838,24.455,166.242,68.86
			c44.405,44.405,68.86,103.444,68.86,166.242s-24.455,121.837-68.86,166.242c-82.135,82.136-214.078,91.669-306.909,22.175
			c-4.618-3.458-11.168-2.516-14.626,2.103c-3.458,4.619-2.516,11.168,2.103,14.626C147.012,494.237,200.836,512,256.017,512
			c5.757,0,11.539-0.194,17.315-0.584c61.745-4.166,119.877-30.587,163.686-74.397C485.371,388.668,512,324.38,512,256
			S485.37,123.333,437.019,74.981z"/>
	</g>
</g>
<g>
	<g>
		<path d="M89.863,422.348l-0.189-0.189c-4.075-4.087-10.69-4.094-14.777-0.02c-4.087,4.075-4.095,10.69-0.02,14.777l0.189,0.189
			c2.042,2.047,4.72,3.07,7.399,3.07c2.67,0,5.339-1.017,7.378-3.05C93.93,433.05,93.938,426.434,89.863,422.348z"/>
	</g>
</g>
<g>
</g>
<g>
</g>
<g>
</g>
<g>
</g>
<g>
</g>
<g>
</g>
<g>
</g>
<g>
</g>
<g>
</g>
<g>
</g>
<g>
</g>
<g>
</g>
<g>
</g>
<g>
</g>
<g>
</g>
</svg>
